<?xml version="1.0" standalone="no"?>
<!DOCTYPE svg PUBLIC "-//W3C//DTD SVG 20010904//EN"
 "http://www.w3.org/TR/2001/REC-SVG-20010904/DTD/svg10.dtd">
<svg version="1.0" xmlns="http://www.w3.org/2000/svg"
 width="512.000000pt" height="512.000000pt" viewBox="0 0 512.000000 512.000000"
 preserveAspectRatio="xMidYMid meet">
<metadata>
Created by potrace 1.14, written by Peter Selinger 2001-2017
</metadata>
<g transform="translate(0.000000,512.000000) scale(0.100000,-0.100000)"
fill="#000000" stroke="none">
<path d="M1725 4601 c-174 -7 -204 -18 -245 -92 l-25 -44 0 -1890 c0 -1039 4
-1907 8 -1927 10 -49 51 -96 102 -119 38 -18 90 -19 993 -19 835 0 957 2 989
15 48 20 71 41 94 87 18 36 19 87 25 1370 3 733 1 1597 -3 1919 l-8 586 -25
36 c-13 20 -42 46 -63 57 -38 22 -41 22 -865 25 -455 1 -894 0 -977 -4z m1213
-138 l-3 -28 -375 0 -375 0 -3 28 -3 27 381 0 381 0 -3 -27z m662 -1833 l0
-1690 -1040 0 -1040 0 0 1690 0 1690 1040 0 1040 0 0 -1690z m-929 -1789 c22
-18 24 -26 24 -116 0 -128 -8 -135 -140 -135 -89 0 -95 1 -114 26 -18 22 -21
41 -21 111 0 76 2 86 25 108 22 23 32 25 113 25 74 0 94 -3 113 -19z"/>
<path d="M2932 3374 c-31 -31 -38 -34 -59 -25 -65 30 -137 -2 -149 -64 -6 -33
-9 -35 -45 -35 -29 0 -47 -8 -71 -29 -30 -26 -33 -35 -31 -80 1 -46 -2 -53
-26 -65 -14 -8 -34 -23 -45 -34 -14 -16 -23 -19 -42 -12 -13 5 -59 12 -102 16
-224 18 -444 -106 -538 -302 -36 -75 -43 -84 -92 -109 -64 -34 -126 -101 -160
-175 -50 -107 -39 -271 22 -361 21 -30 21 -35 9 -83 -23 -88 21 -208 97 -265
67 -49 86 -51 503 -51 267 0 402 4 428 12 77 22 158 118 159 186 l0 22 185 0
c213 0 259 11 339 81 116 102 144 252 74 392 -16 31 -17 41 -7 54 7 8 15 33
18 56 5 37 9 42 41 48 65 14 96 77 70 144 -9 23 -6 30 25 59 29 28 35 40 35
75 0 34 -6 49 -29 71 l-29 29 20 41 c19 37 19 44 7 78 -11 28 -24 42 -57 57
-39 18 -43 23 -38 47 7 37 -11 83 -39 102 -14 9 -45 16 -70 16 -39 0 -45 3
-45 21 0 12 -15 36 -34 55 -38 38 -70 43 -117 18 -29 -15 -31 -14 -65 15 -50
44 -95 42 -142 -5z m133 -142 l20 -23 52 35 51 35 7 -27 c3 -15 10 -43 16 -63
l9 -36 43 8 c78 15 80 14 73 -33 -13 -85 -16 -80 44 -95 30 -8 57 -16 58 -18
2 -2 -10 -24 -27 -49 -17 -24 -31 -49 -31 -54 0 -5 20 -25 45 -43 24 -19 45
-36 45 -39 0 -3 -23 -18 -50 -33 -28 -16 -50 -33 -50 -38 0 -5 11 -32 25 -58
l24 -49 -22 -6 c-12 -3 -34 -6 -49 -6 -53 0 -58 -7 -51 -71 4 -37 2 -59 -4
-59 -6 0 -39 11 -73 23 -72 27 -92 50 -59 67 42 23 101 85 127 134 22 43 27
64 27 131 0 67 -5 88 -27 131 -116 221 -429 215 -534 -9 -13 -29 -24 -64 -24
-80 l0 -27 -70 52 -69 53 54 18 c61 21 63 26 41 101 l-14 46 63 -6 c70 -7 67
-10 80 74 4 23 10 42 13 42 4 0 25 -11 47 -25 22 -13 46 -25 53 -25 7 0 26 23
44 51 l31 52 21 -29 c12 -16 30 -39 41 -52z m87 -139 c89 -49 147 -162 133
-262 -9 -67 -56 -144 -110 -181 l-44 -30 -15 27 c-34 66 -170 163 -228 163
-52 0 -62 34 -28 99 40 79 135 130 221 118 23 -3 63 -19 90 -36 35 -21 47 -25
40 -13 -27 51 -120 101 -187 102 -59 0 -142 -45 -178 -97 -22 -31 -31 -58 -34
-100 -3 -32 -10 -61 -16 -65 -19 -12 -36 14 -36 56 2 109 81 212 191 245 54
16 145 5 201 -26z m-687 -170 c28 -9 68 -27 90 -41 41 -25 155 -131 155 -144
0 -3 -23 -30 -50 -59 -28 -28 -49 -53 -46 -56 2 -2 25 11 50 30 60 47 105 60
182 55 146 -9 236 -141 200 -293 l-14 -60 19 24 c11 14 23 38 26 54 6 28 8 29
45 23 216 -35 275 -295 91 -403 -48 -28 -49 -28 -243 -30 l-195 -3 -30 42
c-16 23 -50 52 -74 65 -24 13 -53 38 -64 56 -10 17 -29 43 -41 56 -26 29 -112
71 -147 71 -17 0 -41 14 -65 36 -22 20 -68 50 -104 67 -57 28 -75 31 -150 31
-145 -1 -255 -63 -321 -179 -17 -30 -46 -64 -69 -79 l-39 -25 -17 51 c-47 143
35 313 173 359 37 12 190 8 228 -6 15 -6 17 -5 10 3 -14 15 -122 52 -152 52
-31 0 -30 22 4 91 92 185 337 280 548 212z m-249 -608 c27 -14 65 -40 84 -60
l34 -35 -28 -29 -28 -29 48 24 c58 29 76 30 129 4 55 -26 79 -70 74 -133 -4
-40 -2 -45 8 -30 7 9 13 20 13 25 0 27 100 -22 123 -61 34 -58 14 -135 -46
-171 -30 -19 -53 -20 -423 -20 -390 0 -391 0 -425 23 -108 73 -107 211 1 285
30 20 44 23 100 20 59 -4 62 -3 35 8 -17 7 -40 13 -53 14 -20 0 -22 4 -16 23
14 48 71 112 123 139 73 38 174 40 247 3z"/>
<path d="M2486 794 c-11 -10 -16 -34 -16 -68 0 -70 18 -86 93 -86 66 0 87 20
87 85 0 66 -20 85 -90 85 -40 0 -64 -5 -74 -16z"/>
</g>
</svg>
